<?xml version="1.0" encoding="UTF-8"?>
<svg id="Capa_2" data-name="Capa 2" xmlns="http://www.w3.org/2000/svg" viewBox="0 0 175.12 175.12" width="21" height="20">
  <defs>
    <style>
      .cls-1 {
        fill: #7286ff;
        stroke-width: 0px;
      }
    </style>
  </defs>
  <g id="Capa_1-2" data-name="Capa 1">
    <g>
      <path class="cls-1" d="m120.92,175.12H54.2c-29.89,0-54.2-24.32-54.2-54.2V54.2C0,24.32,24.32,0,54.2,0h66.72c29.89,0,54.2,24.32,54.2,54.2v66.72c0,29.89-24.32,54.2-54.2,54.2ZM54.2,18.16c-19.87,0-36.04,16.17-36.04,36.04v66.72c0,19.87,16.17,36.04,36.04,36.04h66.72c19.87,0,36.04-16.17,36.04-36.04V54.2c0-19.87-16.17-36.04-36.04-36.04H54.2Z"/>
      <path class="cls-1" d="m87.56,132.41c-24.73,0-44.85-20.12-44.85-44.85s20.12-44.85,44.85-44.85,44.85,20.12,44.85,44.85-20.12,44.85-44.85,44.85Zm0-71.53c-14.71,0-26.68,11.97-26.68,26.68s11.97,26.68,26.68,26.68,26.68-11.97,26.68-26.68-11.97-26.68-26.68-26.68Z"/>
      <circle class="cls-1" cx="132.53" cy="43.3" r="10.78"/>
    </g>
  </g>
</svg>