<svg xmlns="http://www.w3.org/2000/svg" version="1.1" width="35px" height="35px" viewBox="0 0 35 35" fill="none">
  <g>
    <path style="opacity:0.995" fill="#7286ff" d="M 7,1 C 30.244,0.1197 47.744,6.786 56,18.5C 62.5,28.331 67.833,43.664 71,59.5C 77.003,20.925 124.503,3.758 206.5,34 C 255.869,52.6965 306.869,57.6965 359.5,69C 441.305,89.8097 498.805,138.976 532,216.5C 540.64,238.726 545.97,261.726 548,285.5C 548.67,520.5 548.67,755.5 548,990.5C 541.68,1014.31 526.18,1026.98 501.5,1028.5C 496.789,1027.9 492.122,1027.07 487.5,1026 C 346.333,977.833 205.167,929.667 64,881.5C 16.833,929.667 1027,982.833 885.5,934.667C 858.788,940.734 839.288,931.573 827,907.5C 825.268,902.65 824.268,897.65 824,892.5C 823.333,664.833 823.333,437.167 824,209.5C 828.4989,124.974 865.3323,58.807 934.5,11C 968.553,-10.5168 1005.553,2.31619 1045.5,6.5 Z M 958.5,142.5 C 896.61,114.294 836.61,117.794 778.5,153C 729.835,187.132 702.335,233.965 696,293.5C 695.333,430.833 695.333,568.167 696,705.5C 698.392,717.791 705.226,726.625 716.5,732C 808.424,763.474 900.424,794.641 992.5,825.5C 992.667,842.503 992.5,859.503 992,876.5C 989.442,883.887 984.276,888.221 976.5,889.5C 863.143,851.159 749.809,812.825 636.5,774.5C 636.333,598.166 636.5,421.833 637,245.5C 641.053,180.196 670.22,129.696 724.5,94C 785.145,60.025 845.812,60.025 906.5,94C 927.199,106.531 944.532,122.698 958.5,142.5 Z M 869.5,191.5 C 915.745,191.279 950.745,210.779 974.5,250 C 916.388,237.475 871.555,256.309 840,306.5C 832.73,319.977 828.063,334.31 826,349.5C 825.333,442.5 825.333,535.5 826,628.5C 828.776,640.275 835.609,648.775 846.5,654C 894.09,670.474 941.757,686.641 989.5,702.5C 989.5,719.167 989.5,735.833 989.5,752.5C 918.165,728.444 846.831,704.277 775.5,680C 769.508,677.341 765.675,672.841 764,666.5C 763.333,542.5 763.333,418.5 764,294.5C 770.652,246.191 796.819,213.691 842.5,197C 851.51,194.503 860.51,192.67 869.5,191.5 Z M 936.5,316.5 C 962.249,316.411 978.749,328.744 986,353.5C 987.649,444.807 987.982,536.141 987,627.5C 960.591,618.141 934.091,608.975 907.5,600C 900.925,596.423 897.091,590.923 896,583.5C 895.021,506.473 895.354,429.473 897,352.5C 902.76,332.235 915.926,320.235 936.5,316.5 Z"/>
  </g>
</svg>
