<svg version="1.1" id="Layer_1" xmlns="http://www.w3.org/2000/svg" xmlns:xlink="http://www.w3.org/1999/xlink" x="0px" y="0px"
    width="180" height="70" viewBox="0 0 3820 1327" enable-background="new 0 0 3820 1327" xml:space="preserve">
<path fill="#FFFFFF" opacity="1.000000" stroke="none" 
	d="
M2384.000000,1330.000000 
	C1589.333374,1330.000000 795.666687,1330.000000 2.000000,1330.000000 
	C2.000000,887.333313 2.000000,444.666656 2.000000,2.000000 
	C1275.333374,2.000000 2548.666748,2.000000 3822.000000,2.000000 
	C3822.000000,444.666656 3822.000000,887.333313 3822.000000,1330.000000 
	C3343.000000,1330.000000 2864.000000,1330.000000 2384.000000,1330.000000 
M1059.122192,225.812256 
	C908.733459,110.522926 688.057007,196.062378 660.964050,392.103668 
	C657.046509,365.291870 650.336243,339.653839 638.630310,315.584381 
	C611.847290,260.513641 570.769836,219.974167 514.664917,195.022095 
	C466.682098,173.682251 416.599854,168.370468 365.430420,178.722519 
	C312.432922,189.444412 267.400757,215.056396 230.837326,255.478714 
	C188.018417,302.816650 166.659729,358.714264 166.486816,421.843506 
	C165.865189,648.809570 166.230667,875.778442 166.313644,1102.746216 
	C166.315689,1108.346191 167.083878,1113.992676 167.987656,1119.537231 
	C171.334732,1140.071533 193.581146,1162.104248 222.253494,1156.025757 
	C238.092392,1152.668213 253.391983,1146.629028 268.800659,1141.403320 
	C338.411926,1117.795776 407.976013,1094.048950 477.555695,1070.348267 
	C535.802368,1050.507935 594.067688,1030.722046 652.261780,1010.728760 
	C658.213379,1008.684021 663.563782,1008.317871 669.532776,1010.633301 
	C680.065918,1014.719055 690.824341,1018.231567 701.524597,1021.877991 
	C762.917053,1042.799927 824.317688,1063.697876 885.720947,1084.588013 
	C910.280701,1092.943604 934.859680,1101.242676 959.420288,1109.595947 
	C1003.825867,1124.698608 1048.239014,1139.779053 1092.619385,1154.955566 
	C1116.315430,1163.058716 1142.634644,1148.246704 1150.409180,1129.814453 
	C1154.572754,1119.943359 1155.619385,1109.800293 1155.605835,1099.649536 
	C1155.299072,870.069885 1154.709839,640.490723 1154.324463,410.911194 
	C1154.294556,393.115417 1151.659668,375.733978 1147.067139,358.737122 
	C1132.624023,305.284546 1103.525391,261.285217 1059.122192,225.812256 
M1583.317383,443.692505 
	C1576.429688,429.133789 1567.589722,416.041382 1555.499390,405.183228 
	C1529.353149,381.701904 1497.621338,373.556091 1463.717651,372.255035 
	C1441.764160,371.412567 1419.751709,372.027161 1397.766357,372.127960 
	C1387.807129,372.173615 1386.337158,373.732849 1386.333618,383.814056 
	C1386.305908,463.429474 1386.304932,543.044861 1386.335327,622.660278 
	C1386.338989,632.395142 1387.318726,633.321472 1397.400024,633.348511 
	C1418.719482,633.405823 1440.042725,633.126343 1461.357544,633.446533 
	C1476.775024,633.678101 1491.837280,631.695618 1506.645020,627.706787 
	C1544.438477,617.526306 1572.062622,594.807983 1585.521973,557.994751 
	C1599.186401,520.620056 1598.579590,482.518677 1583.317383,443.692505 
M3298.761230,620.265015 
	C3333.528076,644.618469 3368.421387,643.171692 3403.696533,620.125854 
	C3405.820557,631.917664 3413.302734,634.753113 3423.621338,633.445984 
	C3427.229736,632.988831 3430.944580,633.411865 3434.608887,633.341675 
	C3439.520264,633.247620 3441.901611,630.740723 3441.701416,625.773560 
	C3441.607422,623.444702 3441.688232,621.108887 3441.688232,618.776184 
	C3441.688477,549.461975 3441.688232,480.147736 3441.688232,410.833527 
	C3441.688232,398.836823 3441.760742,386.839569 3441.663086,374.843658 
	C3441.595215,366.528931 3440.596436,365.487976 3432.666016,365.321808 
	C3426.004150,365.182190 3419.335693,365.209015 3412.672363,365.314270 
	C3404.431152,365.444397 3402.995850,366.840912 3402.349609,375.178314 
	C3402.169922,377.497345 3402.312012,379.841583 3402.312012,382.174255 
	C3402.311279,408.833588 3402.326660,435.492920 3402.285889,462.152191 
	C3402.282227,464.571808 3401.917725,466.990875 3401.675537,469.965424 
	C3366.236328,441.498413 3302.937744,451.927338 3279.845459,497.093048 
	C3270.758789,514.865784 3267.322510,533.445557 3268.395020,552.981262 
	C3269.806396,578.698242 3277.685547,601.805298 3298.761230,620.265015 
M2470.351562,636.580933 
	C2476.316162,636.840332 2482.291016,637.465454 2488.243652,637.299194 
	C2524.208740,636.295288 2555.452148,614.987122 2565.910400,578.395874 
	C2572.752930,554.455994 2572.131836,530.374451 2565.688965,506.595673 
	C2561.642334,491.660553 2554.250488,478.305054 2541.596436,468.511108 
	C2519.445312,451.366577 2481.390625,448.884918 2456.708984,463.552765 
	C2448.592529,468.376160 2441.207275,474.430115 2432.344238,480.734772 
	C2432.344238,476.846497 2432.344238,473.664398 2432.344238,470.482269 
	C2432.344238,440.166199 2432.345215,409.850098 2432.342285,379.534027 
	C2432.342041,377.202240 2432.343262,374.869812 2432.293213,372.538788 
	C2432.188965,367.683533 2429.818604,365.226959 2424.828125,365.300690 
	C2418.832764,365.389252 2412.835449,365.303894 2406.838867,365.309418 
	C2393.680176,365.321533 2393.660156,365.325500 2393.658936,378.645142 
	C2393.652344,459.265900 2393.655762,539.886658 2393.655762,620.507446 
	C2393.655762,622.173157 2393.576172,623.843689 2393.673340,625.503784 
	C2394.043457,631.824341 2395.088379,633.063904 2401.415771,633.296814 
	C2408.069824,633.541626 2414.743652,633.493896 2421.400391,633.295349 
	C2424.293213,633.209106 2427.704590,633.214966 2429.885254,631.723999 
	C2431.828369,630.395447 2432.399658,627.060608 2433.653564,624.449890 
	C2445.005371,629.925171 2455.965820,635.655518 2470.351562,636.580933 
M1402.578491,884.874146 
	C1400.079224,884.572876 1397.246582,883.356873 1395.137085,884.125427 
	C1384.866943,887.866821 1374.790283,892.139160 1364.012695,896.478210 
	C1364.602661,900.106445 1364.588257,903.492737 1365.722778,906.436157 
	C1373.624268,926.938110 1386.366455,943.428528 1406.053101,953.987244 
	C1429.699951,966.670044 1454.774902,968.604065 1480.458618,962.824463 
	C1497.761475,958.930664 1512.598999,950.216248 1523.394043,935.697632 
	C1535.101440,919.951538 1540.269165,901.986328 1540.314453,882.540161 
	C1540.417480,838.231018 1540.347046,793.921448 1540.347046,749.612061 
	C1540.347046,745.983032 1540.347046,742.354004 1540.347046,738.548889 
	C1547.698853,734.601868 1554.756958,730.925842 1561.702515,727.048401 
	C1567.446167,723.841980 1569.927002,714.953125 1567.935791,706.779114 
	C1566.175903,699.554626 1560.491333,701.365784 1555.813721,701.356445 
	C1511.837769,701.268921 1467.861450,701.296936 1423.885254,701.321289 
	C1420.945801,701.322937 1418.006592,701.566162 1415.177490,701.692139 
	C1410.285645,710.301636 1412.619019,719.127197 1412.449585,727.583801 
	C1412.271362,736.491333 1414.174316,738.072815 1422.935547,738.101074 
	C1444.923462,738.171875 1466.911621,738.109680 1488.899780,738.142578 
	C1491.805054,738.146912 1494.710083,738.394287 1497.629272,738.529785 
	C1497.926514,740.035645 1498.272827,740.972717 1498.273438,741.910034 
	C1498.307373,789.217712 1498.599854,836.528870 1498.038208,883.829773 
	C1497.943726,891.796021 1495.587891,900.495178 1491.800659,907.520691 
	C1478.439209,932.305786 1446.194214,932.419128 1428.051270,921.228394 
	C1414.791138,913.049500 1408.525146,899.945312 1402.578491,884.874146 
M3037.632568,551.963806 
	C3037.170654,543.692688 3037.414062,535.309570 3036.121338,527.170410 
	C3031.306885,496.858337 3015.824219,473.817352 2987.298828,461.335358 
	C2965.154541,451.645538 2942.075928,451.483765 2919.163086,459.196960 
	C2897.434570,466.511353 2881.153809,480.389252 2870.597900,500.856323 
	C2860.314697,520.794006 2858.162842,541.907959 2861.697266,563.751221 
	C2865.780273,588.984497 2878.147949,609.032959 2899.904785,622.840881 
	C2921.385010,636.473389 2944.853516,638.982422 2969.751465,636.348511 
	C2993.397705,633.847046 3011.442139,622.008606 3027.386475,605.749573 
	C3031.609863,601.442749 3031.463135,598.915771 3027.467041,594.659607 
	C3023.139160,590.049622 3018.648926,585.580017 3014.051270,581.238220 
	C3009.177002,576.635254 3006.416260,576.766296 3001.669434,582.083130 
	C2986.837646,598.695923 2968.305420,605.232849 2946.317383,603.322327 
	C2919.620605,601.002808 2901.352539,579.147095 2900.425537,558.126099 
	C2903.747803,558.126099 2907.047607,558.126038 2910.347656,558.126038 
	C2948.988770,558.126038 2987.630127,558.134338 3026.271240,558.114258 
	C3030.479248,558.112061 3035.202881,559.227478 3037.632568,551.963806 
M1793.379639,602.138611 
	C1792.281494,599.179321 1791.787842,595.754333 1789.948364,593.366150 
	C1786.924805,589.440735 1783.132812,586.075439 1779.477905,582.674866 
	C1772.703613,576.372070 1770.770386,576.501465 1763.897095,583.244568 
	C1762.708496,584.410706 1761.543335,585.600830 1760.370850,586.783386 
	C1738.179565,609.166626 1699.523560,607.835388 1680.939819,591.461792 
	C1671.015503,582.717712 1664.363892,572.202942 1663.341431,558.125916 
	C1705.185791,558.125916 1746.144897,558.126160 1787.104126,558.125427 
	C1789.435669,558.125366 1791.767212,558.121033 1794.098755,558.113220 
	C1798.179810,558.099548 1800.257080,555.983704 1800.311890,551.968811 
	C1800.384521,546.640503 1800.638550,541.291321 1800.296387,535.984558 
	C1798.665283,510.683289 1789.233154,489.041382 1769.402100,472.668762 
	C1751.582886,457.957214 1730.550537,452.821625 1707.988403,454.208069 
	C1677.545166,456.078857 1653.093872,469.227722 1636.870605,495.564178 
	C1623.334473,517.538208 1620.838013,541.602417 1625.617310,566.600281 
	C1631.437134,597.039734 1649.027222,618.094543 1677.387207,630.097351 
	C1698.632446,639.089111 1720.718994,639.227722 1742.946289,634.765381 
	C1763.432861,630.652466 1778.868164,618.226624 1793.379639,602.138611 
M3627.899414,618.935852 
	C3633.137695,613.462585 3639.183105,608.553772 3643.474121,602.417969 
	C3661.640869,576.439209 3663.942627,547.617554 3656.430908,517.728455 
	C3649.882080,491.669342 3634.085449,472.765106 3609.242432,462.161163 
	C3587.481689,452.872894 3564.926514,451.670227 3541.989746,457.421539 
	C3510.630371,465.284698 3490.498779,485.081024 3480.917480,515.630615 
	C3475.567139,532.689575 3475.564453,550.359741 3478.708984,567.698303 
	C3482.701416,589.710876 3493.593262,607.839783 3512.220459,621.105225 
	C3542.375977,642.580505 3594.808350,643.597961 3627.899414,618.935852 
M2274.620605,635.991516 
	C2287.511475,633.897644 2299.066406,628.599854 2309.753662,620.381226 
	C2310.026367,622.295837 2310.207031,623.273499 2310.299805,624.259399 
	C2311.078125,632.508301 2311.716309,633.200134 2319.865479,633.344666 
	C2326.530029,633.462830 2333.201660,633.499207 2339.864014,633.331421 
	C2346.860840,633.155151 2348.662598,631.479492 2349.560547,624.689941 
	C2349.820801,622.721497 2349.680420,620.696777 2349.680664,618.697815 
	C2349.685547,570.364685 2349.699463,522.031555 2349.648926,473.698486 
	C2349.645752,470.738678 2349.184326,467.772034 2348.827881,464.821655 
	C2348.262939,460.149323 2345.908936,457.796143 2340.858154,458.028046 
	C2334.538330,458.318207 2328.194580,458.069550 2321.861572,458.100372 
	C2311.059082,458.152954 2310.363281,458.785431 2310.329102,469.284088 
	C2310.276855,485.283875 2310.379639,501.284271 2310.297363,517.283752 
	C2310.216553,532.940186 2310.079346,548.597534 2309.791504,564.251221 
	C2309.574951,576.033813 2303.940186,584.982422 2294.937500,592.271423 
	C2285.179199,600.171997 2274.150635,603.518677 2261.683105,603.355042 
	C2239.649170,603.065796 2228.405762,592.090820 2228.363281,570.199646 
	C2228.316406,546.199829 2228.352295,522.199829 2228.352295,498.199951 
	C2228.352295,488.533325 2228.434814,478.865784 2228.329346,469.200317 
	C2228.219238,459.123810 2227.300293,458.223083 2217.576904,458.107788 
	C2211.577881,458.036621 2205.576416,458.035675 2199.577393,458.108398 
	C2190.568359,458.217651 2189.691406,458.942627 2189.676270,467.670563 
	C2189.609863,506.003632 2189.469971,544.337952 2189.712158,582.669617 
	C2189.867676,607.286926 2206.517334,627.721924 2230.430176,634.379272 
	C2244.536377,638.306396 2258.645996,637.861572 2274.620605,635.991516 
M1752.349731,883.000122 
	C1752.349731,856.338745 1752.352661,829.677368 1752.345093,803.015991 
	C1752.344360,800.351501 1752.465820,797.668823 1752.208740,795.026001 
	C1751.539185,788.143799 1749.728760,786.369202 1742.801025,786.141235 
	C1736.808716,785.943909 1730.804321,786.052673 1724.806030,786.106995 
	C1714.204712,786.202881 1713.670288,786.730347 1713.659546,797.602600 
	C1713.631714,825.930359 1713.855225,854.260437 1713.546753,882.584839 
	C1713.427734,893.514404 1712.848145,904.588318 1705.210571,913.681641 
	C1694.651733,926.253235 1680.865723,931.803101 1664.823853,932.047913 
	C1643.928345,932.366821 1631.775146,920.356873 1631.697266,899.597229 
	C1631.623657,879.934753 1631.681519,860.271667 1631.681396,840.608887 
	C1631.681274,826.278381 1631.770874,811.947021 1631.648193,797.617615 
	C1631.570679,788.551453 1629.319702,786.293091 1620.596680,786.120056 
	C1614.600342,786.001099 1608.597900,786.010254 1602.601074,786.117920 
	C1593.845947,786.275146 1592.361938,787.724792 1592.346436,796.859741 
	C1592.281494,834.852173 1591.608521,872.863037 1592.583862,910.830566 
	C1593.175415,933.859680 1604.585449,950.987671 1626.552979,960.357971 
	C1641.845947,966.881165 1657.676270,966.349060 1673.564087,964.818481 
	C1687.029175,963.521362 1699.447266,958.975403 1710.239746,950.496948 
	C1710.874634,949.998291 1712.091553,950.240479 1713.334106,950.105774 
	C1713.450684,951.584778 1713.527588,952.851501 1713.653442,954.113281 
	C1714.345337,961.048706 1715.102051,961.909363 1722.154419,962.084229 
	C1729.481812,962.265869 1736.817139,962.114258 1744.149048,962.119507 
	C1748.951294,962.122864 1751.608032,959.718201 1752.019409,954.966736 
	C1752.248657,952.317505 1752.332886,949.648315 1752.336060,946.987976 
	C1752.360718,926.325378 1752.349731,905.662720 1752.349731,883.000122 
M1945.898193,799.206909 
	C1933.943970,785.330078 1917.582642,782.185181 1900.747681,782.328979 
	C1878.441406,782.519653 1858.701050,790.701660 1841.757202,805.387573 
	C1840.465820,806.507019 1838.723999,807.106689 1836.021606,808.590271 
	C1836.021606,802.621399 1836.213867,798.001038 1835.968506,793.403931 
	C1835.715698,788.666931 1832.887329,786.183655 1828.160400,786.141907 
	C1820.168823,786.071289 1812.170654,785.955139 1804.186035,786.202271 
	C1799.999390,786.331848 1797.409546,788.598267 1797.652832,793.234558 
	C1797.757324,795.226990 1797.661377,797.229797 1797.661377,799.227844 
	C1797.660889,849.180176 1797.660889,899.132507 1797.661377,949.084839 
	C1797.661377,951.082947 1797.757202,953.085693 1797.652710,955.078125 
	C1797.410278,959.698547 1799.827026,961.975037 1804.162842,962.050293 
	C1812.485107,962.194763 1820.813232,962.155823 1829.136230,962.022400 
	C1832.973145,961.960876 1835.359253,959.781616 1835.826172,955.951782 
	C1836.187256,952.989868 1836.312378,949.983643 1836.317993,946.996643 
	C1836.357666,926.016785 1836.220825,905.035645 1836.414429,884.057434 
	C1836.469116,878.136597 1836.625366,872.009216 1838.125732,866.344910 
	C1844.714111,841.471130 1859.451904,823.744141 1885.071289,817.239868 
	C1904.493042,812.308960 1917.634644,823.203308 1917.652466,843.213623 
	C1917.682983,877.514221 1917.660645,911.814819 1917.661621,946.115417 
	C1917.661743,948.446472 1917.526978,950.788635 1917.704102,953.106567 
	C1918.228882,959.981323 1920.056519,961.855530 1926.934937,962.071838 
	C1933.255981,962.270691 1939.588989,962.178345 1945.915405,962.103394 
	C1955.656128,961.988098 1956.308960,961.424438 1956.319458,952.008301 
	C1956.365234,911.047363 1956.379395,870.086426 1956.311035,829.125610 
	C1956.293335,818.543152 1953.368408,808.834961 1945.898193,799.206909 
M3125.894531,470.890045 
	C3121.723877,473.847565 3117.552979,476.805115 3112.273682,480.548737 
	C3112.273682,474.296875 3112.363770,469.703857 3112.247559,465.116119 
	C3112.138916,460.811707 3109.939209,458.194427 3105.488770,458.146973 
	C3096.832275,458.054657 3088.173340,458.073578 3079.516602,458.164001 
	C3075.976807,458.200958 3073.983887,460.255829 3073.729492,463.734894 
	C3073.535645,466.385406 3073.654785,469.059631 3073.654785,471.723328 
	C3073.652344,513.348206 3073.652832,554.973022 3073.653076,596.597900 
	C3073.653076,605.921875 3073.543457,615.247559 3073.688721,624.569275 
	C3073.805420,632.052185 3074.911865,633.129395 3082.468018,633.326782 
	C3088.790527,633.491943 3095.121582,633.406982 3101.447998,633.351746 
	C3111.212158,633.266479 3112.264160,632.338013 3112.315186,622.473999 
	C3112.420654,602.161621 3112.226318,581.847168 3112.411133,561.535950 
	C3112.477295,554.264099 3112.804932,546.930420 3113.837646,539.743408 
	C3117.068848,517.255432 3137.616699,494.302368 3159.327637,489.196869 
	C3174.626709,485.599243 3193.218506,488.486267 3194.244629,513.927307 
	C3194.351807,516.587524 3194.317139,519.254150 3194.317871,521.917786 
	C3194.323486,540.565735 3194.320557,559.213623 3194.320801,577.861572 
	C3194.321045,593.512512 3194.229248,609.164307 3194.364990,624.814087 
	C3194.424561,631.679199 3195.794189,633.080811 3202.438477,633.308472 
	C3209.090576,633.536499 3215.761963,633.514221 3222.414551,633.294495 
	C3225.534668,633.191406 3228.631104,632.366638 3231.410400,631.921387 
	C3231.882080,629.830078 3232.288574,628.868347 3232.289307,627.906189 
	C3232.328369,584.283447 3232.646729,540.657410 3232.199951,497.039337 
	C3231.993408,476.886353 3216.336914,459.973450 3196.354736,456.017792 
	C3171.269043,451.051849 3148.208252,455.665710 3125.894531,470.890045 
M2348.418701,828.065247 
	C2354.202881,818.269653 2363.287109,814.432129 2375.348633,816.545288 
	C2386.721924,818.537964 2396.723389,823.344421 2405.853271,830.384338 
	C2413.510986,836.288757 2417.274414,835.759033 2423.603271,828.584717 
	C2426.454590,825.352600 2429.126465,821.948120 2431.700439,818.488403 
	C2435.872559,812.880493 2435.470703,808.179016 2430.477783,803.694519 
	C2405.923584,781.641235 2365.464355,776.196228 2337.214600,789.453491 
	C2319.998535,797.532776 2309.472168,810.980164 2308.902344,830.576050 
	C2308.394287,848.050049 2315.627686,861.808289 2330.198486,871.805847 
	C2340.282471,878.724854 2351.904785,881.591125 2363.172363,885.514038 
	C2372.844971,888.881531 2382.662842,892.044556 2391.892090,896.407166 
	C2399.494385,900.000610 2402.687256,907.310120 2401.315430,915.584167 
	C2399.944824,923.850342 2394.596191,929.275208 2386.251709,930.895447 
	C2382.075684,931.706299 2377.638916,932.059143 2373.426514,931.613342 
	C2364.031738,930.618958 2355.257324,927.345764 2348.073975,921.131958 
	C2342.847656,916.611084 2338.267822,911.317810 2333.592529,906.192932 
	C2329.224121,901.404724 2325.763428,900.050964 2320.561035,902.688416 
	C2314.647705,905.686340 2308.885010,909.056763 2303.360107,912.722351 
	C2298.593506,915.884644 2297.678711,920.429871 2300.248047,925.623535 
	C2301.418701,927.989929 2302.931396,930.216614 2304.497559,932.353577 
	C2330.357910,967.635498 2384.172607,974.615356 2417.652344,955.147949 
	C2450.357178,936.131287 2449.798340,884.326599 2418.410156,867.874817 
	C2406.517090,861.641174 2393.990234,857.619873 2381.189941,853.973022 
	C2373.253662,851.711792 2365.366211,848.981873 2357.874023,845.550720 
	C2351.480713,842.622681 2347.587891,837.251404 2348.418701,828.065247 
M1829.211060,601.715881 
	C1836.700806,612.093506 1845.666382,620.622192 1857.215332,626.632263 
	C1877.194580,637.029480 1898.243652,639.955872 1920.031128,635.714355 
	C1943.241333,631.195679 1970.326904,615.195923 1967.783936,578.127197 
	C1966.651855,561.624634 1960.459106,548.119507 1945.590820,540.563782 
	C1934.145142,534.747437 1921.672119,530.938721 1909.616333,526.341003 
	C1900.357056,522.809875 1890.828369,519.900085 1881.820068,515.827759 
	C1876.366333,513.362427 1873.683350,508.066040 1874.271362,501.801453 
	C1874.832520,495.822571 1878.900146,492.380402 1883.916870,490.087585 
	C1890.550659,487.055817 1897.519409,487.709381 1904.456177,488.948761 
	C1914.868042,490.809021 1923.755005,495.871094 1932.048828,502.154175 
	C1935.267090,504.592041 1938.452637,507.089050 1942.898682,505.852844 
	C1947.348877,504.615448 1960.338623,488.476532 1960.229980,483.824493 
	C1960.180176,481.698883 1959.428833,479.239563 1958.154053,477.577057 
	C1956.375122,475.257080 1953.887329,473.442139 1951.564697,471.583740 
	C1936.682861,459.676331 1919.322754,454.768585 1900.628052,454.146240 
	C1882.952026,453.557770 1866.641479,457.264496 1851.867310,468.064270 
	C1830.313477,483.820282 1831.259033,519.777771 1847.090210,535.604492 
	C1857.941772,546.453003 1871.380371,551.406433 1885.294922,556.006653 
	C1895.371216,559.337952 1905.642090,562.257751 1915.361450,566.440857 
	C1924.936646,570.562012 1929.251221,579.595764 1927.313965,588.202698 
	C1925.401489,596.699951 1917.381226,602.756714 1907.347046,603.294250 
	C1892.928223,604.066650 1880.557983,599.284546 1870.230957,589.316772 
	C1866.653931,585.864380 1863.473999,582.000244 1860.119263,578.318237 
	C1854.933105,572.626404 1852.167603,571.972961 1845.270386,575.363464 
	C1841.103149,577.412048 1837.074341,579.759460 1833.071167,582.121033 
	C1823.867188,587.550659 1823.104492,590.643005 1829.211060,601.715881 
M2272.110840,792.287476 
	C2272.221191,787.468262 2269.499268,786.006409 2265.120605,786.066223 
	C2256.794434,786.179993 2248.459229,786.290894 2240.139404,786.030396 
	C2234.173584,785.843567 2230.191650,788.244446 2226.970703,793.208557 
	C2219.012451,805.474426 2210.739502,817.537109 2202.520508,829.632141 
	C2201.143311,831.658752 2199.403320,833.438904 2197.477051,835.759216 
	C2187.673584,821.141296 2178.361084,807.372864 2169.193359,793.508545 
	C2166.711914,789.755615 2164.029053,786.302917 2159.199951,786.208557 
	C2149.211182,786.013306 2139.208740,785.927795 2129.225830,786.241211 
	C2124.515137,786.389160 2122.779297,789.434143 2124.294678,793.740479 
	C2124.837891,795.284119 2125.800781,796.709045 2126.726074,798.084473 
	C2133.591064,808.289612 2140.533447,818.442688 2147.377197,828.661987 
	C2156.592285,842.422913 2165.740967,856.228516 2174.559082,869.475647 
	C2174.021973,871.093567 2173.944824,871.806274 2173.588867,872.329285 
	C2156.947510,896.774902 2140.278809,921.201843 2123.623047,945.637634 
	C2121.752197,948.382446 2119.718262,951.046936 2118.143555,953.956116 
	C2115.120117,959.541138 2116.406982,961.912659 2122.746094,962.068665 
	C2131.734619,962.289917 2140.768555,961.632996 2149.715576,962.281555 
	C2157.102051,962.816956 2161.423828,959.708862 2165.194580,953.843445 
	C2174.362793,939.581360 2183.918701,925.567749 2193.378174,911.494141 
	C2194.755371,909.445068 2196.460693,907.616333 2198.390625,905.218018 
	C2209.814209,922.281921 2220.875732,938.451172 2231.506348,954.898865 
	C2234.737793,959.898621 2238.380127,962.448059 2244.455078,962.216492 
	C2253.436035,961.874023 2262.441895,962.241211 2271.432373,962.059082 
	C2274.151855,962.003967 2276.854736,961.130188 2281.457031,960.283264 
	C2261.556885,928.412170 2240.168213,899.752869 2220.968506,869.913025 
	C2229.707520,856.871277 2238.043213,844.473633 2246.334473,832.046326 
	C2254.820801,819.326843 2263.263672,806.578369 2272.110840,792.287476 
M2103.475586,601.972900 
	C2095.864502,602.402283 2088.160156,603.790039 2080.661865,603.060242 
	C2065.356689,601.570496 2052.941162,594.332397 2044.480347,581.150635 
	C2035.048828,566.456177 2033.171143,550.210205 2036.075928,533.473999 
	C2043.844727,488.714417 2090.483154,477.862854 2117.604980,496.657593 
	C2122.238037,499.868073 2126.435791,503.700653 2130.918945,507.135620 
	C2135.891113,510.945496 2137.738037,511.005981 2141.911133,506.559845 
	C2146.228271,501.960327 2150.164795,496.993958 2154.132324,492.078461 
	C2159.070068,485.960388 2159.161133,482.840454 2153.250977,477.636902 
	C2148.296143,473.274475 2142.796875,469.367798 2137.070312,466.073120 
	C2114.945312,453.343323 2090.939941,451.166229 2066.566650,456.349915 
	C2034.178833,463.238129 2010.249268,481.261963 1999.356201,513.605835 
	C1992.860107,532.894165 1992.687134,552.630005 1997.594238,572.442444 
	C2003.150269,594.874756 2015.604248,612.302368 2035.435791,624.047607 
	C2054.656982,635.431396 2075.899902,639.042114 2097.864502,637.175110 
	C2120.444336,635.255798 2140.270996,626.556580 2156.241943,610.008545 
	C2161.984131,604.058899 2162.074219,602.575745 2156.589600,596.823059 
	C2152.680908,592.723328 2148.749756,588.621460 2144.542236,584.839172 
	C2142.215820,582.747864 2139.299805,581.312683 2136.515625,579.494263 
	C2126.266602,588.232788 2118.038574,598.320374 2103.475586,601.972900 
M2084.666748,786.104187 
	C2074.784424,786.104187 2064.902100,786.104187 2054.340332,786.104187 
	C2054.340332,782.036438 2054.340576,779.103699 2054.340576,776.170959 
	C2054.340088,762.843018 2054.471191,749.513245 2054.291260,736.187744 
	C2054.176758,727.706726 2052.605713,726.257812 2044.334961,726.127747 
	C2037.339600,726.017700 2030.331665,725.886536 2023.346680,726.179321 
	C2017.139404,726.439514 2015.792969,727.858521 2015.710327,734.077026 
	C2015.546509,746.403259 2015.660278,758.733093 2015.659546,771.061462 
	C2015.659180,775.929810 2015.659424,780.798157 2015.659424,786.104736 
	C2006.392090,786.104736 1998.416138,786.005493 1990.443848,786.131592 
	C1981.853760,786.267517 1980.116333,788.009583 1979.701416,796.781921 
	C1979.512817,800.771484 1979.550171,804.781067 1979.685669,808.774719 
	C1980.020020,818.629211 1981.515625,820.034241 1991.648438,820.107605 
	C1999.492188,820.164368 2007.336670,820.118958 2015.659424,820.118958 
	C2015.659424,825.496399 2015.659424,829.456726 2015.659424,833.416992 
	C2015.659668,863.404907 2015.543213,893.393372 2015.704224,923.380432 
	C2015.799805,941.186462 2025.294556,955.972534 2040.808838,961.700623 
	C2058.135498,968.097961 2075.802490,966.296265 2094.338379,963.049194 
	C2094.338379,953.691711 2094.379150,945.099609 2094.306885,936.508423 
	C2094.290771,934.595215 2093.877441,932.685303 2093.534668,929.841492 
	C2089.152100,930.544067 2085.346924,931.225830 2081.520264,931.753174 
	C2072.371826,933.013855 2063.591553,931.599792 2058.663574,923.256409 
	C2055.809814,918.424866 2054.617676,911.995667 2054.524414,906.255554 
	C2054.103516,880.272888 2054.322998,854.279541 2054.367920,828.290100 
	C2054.372314,825.743042 2054.759277,823.196716 2054.985596,820.446350 
	C2057.232422,820.313293 2058.860107,820.137695 2060.488281,820.133545 
	C2070.817383,820.107239 2081.148926,820.247498 2091.475098,820.076294 
	C2099.424805,819.944519 2101.473145,817.806519 2101.650146,810.018860 
	C2101.763672,805.023499 2101.827393,800.017212 2101.630371,795.026978 
	C2101.356689,788.092407 2099.652100,786.512878 2092.553467,786.123291 
	C2090.560303,786.013855 2088.556152,786.104980 2084.666748,786.104187 
M2645.695801,473.758514 
	C2645.694092,472.092133 2645.717529,470.425262 2645.686523,468.759430 
	C2645.504639,458.956573 2644.703125,458.165070 2634.631592,458.097168 
	C2628.299805,458.054474 2621.964600,457.964722 2615.636475,458.124176 
	C2608.630371,458.300690 2606.972900,459.948669 2606.351562,466.937622 
	C2606.175293,468.921997 2606.309814,470.934418 2606.309570,472.933960 
	C2606.308838,521.923706 2606.307373,570.913513 2606.313965,619.903259 
	C2606.314209,622.234558 2606.162109,624.596191 2606.472656,626.890564 
	C2607.035400,631.043945 2609.295410,633.439453 2613.812988,633.389893 
	C2621.810303,633.302185 2629.815186,633.559570 2637.805664,633.309814 
	C2643.787842,633.122864 2645.422607,631.382324 2645.642822,625.455811 
	C2645.852783,619.798096 2645.645996,614.126038 2645.698486,608.461060 
	C2645.898926,586.812073 2645.431396,565.127075 2646.552979,543.525085 
	C2647.607910,523.204285 2657.129883,506.761993 2673.753418,494.718628 
	C2682.937500,488.064850 2693.056152,486.187683 2703.930176,489.506653 
	C2713.375488,492.389496 2717.468506,499.362122 2718.594482,508.830841 
	C2718.943359,511.764709 2720.966064,514.219543 2724.785400,514.160400 
	C2733.114990,514.031128 2741.448486,514.173706 2749.779297,514.088928 
	C2753.674072,514.049377 2756.148438,512.033630 2756.290771,508.028076 
	C2756.873535,491.623138 2752.250732,477.358643 2739.525635,466.152435 
	C2720.852783,449.708649 2683.582031,450.965546 2664.341553,463.722107 
	C2658.845947,467.365692 2653.974121,471.961517 2648.893311,476.212921 
	C2647.230713,477.603882 2646.169678,477.940521 2645.695801,473.758514 
M2787.660889,471.406769 
	C2787.660889,520.307922 2787.657959,569.209106 2787.668945,618.110291 
	C2787.669678,621.100403 2787.621826,624.103943 2787.877686,627.077148 
	C2788.199951,630.827087 2790.042725,633.322571 2794.182129,633.325745 
	C2802.830811,633.332275 2811.481934,633.425354 2820.127441,633.257263 
	C2823.980957,633.182373 2826.276123,631.044922 2826.315674,626.965149 
	C2826.338135,624.636719 2826.337891,622.307983 2826.337891,619.979431 
	C2826.339111,570.412964 2826.339111,520.846436 2826.338379,471.279938 
	C2826.338379,469.283997 2826.300537,467.287445 2826.336914,465.292206 
	C2826.427734,460.325623 2824.075684,457.992126 2819.048828,458.081879 
	C2812.397705,458.200684 2805.742676,458.068329 2799.089600,458.114624 
	C2788.423584,458.188812 2788.383789,458.253235 2787.660889,471.406769 
M2828.878662,419.570160 
	C2834.644043,409.906616 2834.485596,399.944153 2828.960693,390.531311 
	C2823.775146,381.696228 2815.231934,378.625824 2805.106934,379.255341 
	C2794.634277,379.906433 2785.882568,386.309814 2782.677246,396.133850 
	C2779.428223,406.092896 2782.467041,418.176147 2789.791016,424.419983 
	C2800.962891,433.944092 2816.544678,432.502014 2828.878662,419.570160 
z"/>
<path fill="#7386FF" opacity="1.000000" stroke="none" 
	d="
M1059.669434,226.270782 
	C1103.525391,261.285217 1132.624023,305.284546 1147.067139,358.737122 
	C1151.659668,375.733978 1154.294556,393.115417 1154.324463,410.911194 
	C1154.709839,640.490723 1155.299072,870.069885 1155.605835,1099.649536 
	C1155.619385,1109.800293 1154.572754,1119.943359 1150.409180,1129.814453 
	C1142.634644,1148.246704 1116.315430,1163.058716 1092.619385,1154.955566 
	C1048.239014,1139.779053 1003.825867,1124.698608 959.420288,1109.595947 
	C934.859680,1101.242676 910.280701,1092.943604 885.720947,1084.588013 
	C824.317688,1063.697876 762.917053,1042.799927 701.524597,1021.877991 
	C690.824341,1018.231567 680.065918,1014.719055 669.532776,1010.633301 
	C663.563782,1008.317871 658.213379,1008.684021 652.261780,1010.728760 
	C594.067688,1030.722046 535.802368,1050.507935 477.555695,1070.348267 
	C407.976013,1094.048950 338.411926,1117.795776 268.800659,1141.403320 
	C253.391983,1146.629028 238.092392,1152.668213 222.253494,1156.025757 
	C193.581146,1162.104248 171.334732,1140.071533 167.987656,1119.537231 
	C167.083878,1113.992676 166.315689,1108.346191 166.313644,1102.746216 
	C166.230667,875.778442 165.865189,648.809570 166.486816,421.843506 
	C166.659729,358.714264 188.018417,302.816650 230.837326,255.478714 
	C267.400757,215.056396 312.432922,189.444412 365.430420,178.722519 
	C416.599854,168.370468 466.682098,173.682251 514.664917,195.022095 
	C570.769836,219.974167 611.847290,260.513641 638.630310,315.584381 
	C650.336243,339.653839 657.046509,365.291870 660.964050,392.103668 
	C688.057007,196.062378 908.733459,110.522926 1059.669434,226.270782 
M839.744019,352.748138 
	C901.987122,291.745422 973.669434,283.238617 1052.643066,314.782410 
	C1052.228638,313.885651 1052.045898,313.210205 1051.656982,312.688293 
	C1009.947021,256.711121 937.388123,229.044113 868.573181,244.931183 
	C824.468933,255.113373 789.468323,279.309052 762.703674,315.167542 
	C738.322937,347.832092 726.206360,384.980530 726.216675,425.956512 
	C726.260437,599.576294 726.235291,773.196045 726.235291,946.815796 
	C726.235291,950.772217 726.235291,954.728638 726.235291,958.724426 
	C728.982422,959.937439 731.023499,961.024658 733.183472,961.765137 
	C783.832764,979.127991 834.490845,996.465149 885.155945,1013.781860 
	C926.072815,1027.766846 966.996216,1041.733032 1007.926392,1055.678955 
	C1026.182983,1061.899292 1044.424683,1068.166992 1062.744507,1074.196289 
	C1079.157227,1079.597900 1088.098267,1073.201294 1088.238647,1056.206299 
	C1088.307373,1047.875854 1088.250854,1039.544312 1088.250977,1031.213257 
	C1088.250977,1024.989868 1088.250977,1018.766479 1088.250977,1012.749390 
	C1081.784302,1010.270996 1076.571167,1008.079773 1071.232544,1006.256592 
	C1010.780762,985.612427 950.309875,965.024475 889.843811,944.422302 
	C863.707397,935.516907 837.573914,926.602844 811.431946,917.713745 
	C798.053772,913.164673 789.406189,904.206055 786.571594,890.278015 
	C785.653564,885.767029 785.795471,880.999268 785.794189,876.348816 
	C785.757446,746.717163 785.720703,617.085449 785.851746,487.453949 
	C785.861755,477.523682 786.494690,467.507812 787.887085,457.680328 
	C793.567444,417.587036 810.341797,382.792145 839.744019,352.748138 
M962.155823,844.983521 
	C957.461609,843.286987 952.853394,841.280640 948.057983,839.948303 
	C928.651062,834.556335 917.486694,820.061707 917.596436,797.571228 
	C918.009583,712.917114 917.588318,628.259338 917.840027,543.603943 
	C917.955505,504.787598 932.888916,472.452942 962.982361,447.664673 
	C983.701233,430.598297 1007.543640,421.236938 1034.635620,421.730499 
	C1045.954224,421.936707 1057.251221,423.327911 1070.035400,424.291687 
	C1065.061401,417.750671 1060.943481,411.753265 1056.242676,406.254059 
	C1035.547363,382.043915 1009.094910,368.179382 977.456238,366.359772 
	C937.108887,364.039337 904.131714,379.717682 879.110291,411.484161 
	C865.179565,429.170197 855.997070,449.286102 855.929749,471.948944 
	C855.560242,596.265686 855.739868,720.584106 855.774719,844.901917 
	C855.777771,855.607300 859.221313,860.489502 869.642700,864.109253 
	C904.203918,876.114197 938.819214,887.963806 973.420593,899.853088 
	C1000.158447,909.040344 1026.889282,918.248779 1053.658936,927.342529 
	C1063.932739,930.832520 1074.305542,934.030579 1085.135376,937.523682 
	C1085.135376,919.820923 1085.135376,903.321899 1085.135376,886.636292 
	C1044.289673,872.842651 1003.946045,859.218567 962.155823,844.983521 
M1082.243164,745.000000 
	C1082.242676,676.369019 1082.327148,607.737915 1082.203369,539.107178 
	C1082.147705,508.251068 1051.924927,486.582428 1022.509521,495.724854 
	C1004.836914,501.217590 989.546509,519.555237 989.647034,543.120972 
	C989.953857,615.082153 989.727051,687.045532 989.784363,759.008057 
	C989.795776,773.311340 994.403625,779.356201 1007.992798,784.019958 
	C1027.171753,790.602112 1046.317749,797.280396 1065.501831,803.847229 
	C1070.708862,805.629700 1076.002441,807.158813 1082.243530,809.113342 
	C1082.243530,787.550659 1082.243530,767.275330 1082.243164,745.000000 
z"/>
<path fill="#041C33" opacity="1.000000" stroke="none" 
	d="
M1583.642578,444.381287 
	C1598.579590,482.518677 1599.186401,520.620056 1585.521973,557.994751 
	C1572.062622,594.807983 1544.438477,617.526306 1506.645020,627.706787 
	C1491.837280,631.695618 1476.775024,633.678101 1461.357544,633.446533 
	C1440.042725,633.126343 1418.719482,633.405823 1397.400024,633.348511 
	C1387.318726,633.321472 1386.338989,632.395142 1386.335327,622.660278 
	C1386.304932,543.044861 1386.305908,463.429474 1386.333618,383.814056 
	C1386.337158,373.732849 1387.807129,372.173615 1397.766357,372.127960 
	C1419.751709,372.027161 1441.764160,371.412567 1463.717651,372.255035 
	C1497.621338,373.556091 1529.353149,381.701904 1555.499390,405.183228 
	C1567.589722,416.041382 1576.429688,429.133789 1583.642578,444.381287 
M1428.339844,447.001770 
	C1428.339844,496.526947 1428.339844,546.052124 1428.339844,597.043457 
	C1446.857788,596.001282 1464.273193,596.390442 1481.226807,593.780212 
	C1515.817627,588.454407 1538.488770,568.158203 1547.128540,534.093750 
	C1552.499634,512.916626 1552.174561,491.223175 1546.519897,469.928955 
	C1539.130127,442.100372 1521.817749,423.439789 1494.156616,414.900330 
	C1472.827759,408.315674 1450.944824,410.131561 1428.339844,410.371674 
	C1428.339844,422.479767 1428.339844,433.741608 1428.339844,447.001770 
z"/>
<path fill="#051D34" opacity="1.000000" stroke="none" 
	d="
M3298.131836,619.924255 
	C3277.685547,601.805298 3269.806396,578.698242 3268.395020,552.981262 
	C3267.322510,533.445557 3270.758789,514.865784 3279.845459,497.093048 
	C3302.937744,451.927338 3366.236328,441.498413 3401.675537,469.965424 
	C3401.917725,466.990875 3402.282227,464.571808 3402.285889,462.152191 
	C3402.326660,435.492920 3402.311279,408.833588 3402.312012,382.174255 
	C3402.312012,379.841583 3402.169922,377.497345 3402.349609,375.178314 
	C3402.995850,366.840912 3404.431152,365.444397 3412.672363,365.314270 
	C3419.335693,365.209015 3426.004150,365.182190 3432.666016,365.321808 
	C3440.596436,365.487976 3441.595215,366.528931 3441.663086,374.843658 
	C3441.760742,386.839569 3441.688232,398.836823 3441.688232,410.833527 
	C3441.688232,480.147736 3441.688477,549.461975 3441.688232,618.776184 
	C3441.688232,621.108887 3441.607422,623.444702 3441.701416,625.773560 
	C3441.901611,630.740723 3439.520264,633.247620 3434.608887,633.341675 
	C3430.944580,633.411865 3427.229736,632.988831 3423.621338,633.445984 
	C3413.302734,634.753113 3405.820557,631.917664 3403.696533,620.125854 
	C3368.421387,643.171692 3333.528076,644.618469 3298.131836,619.924255 
M3336.714844,598.721558 
	C3344.833008,603.598083 3353.829346,603.829834 3362.830566,603.262390 
	C3387.771973,601.690247 3404.296631,579.357666 3402.528076,561.381531 
	C3401.424316,550.162415 3402.560303,538.738770 3402.206299,527.422119 
	C3402.063477,522.858337 3401.713135,517.739929 3399.605225,513.887390 
	C3382.336182,482.326172 3341.211426,479.024200 3320.862305,506.531342 
	C3309.899902,521.349609 3307.160645,538.383667 3309.594727,556.576416 
	C3311.981689,574.417419 3319.310547,588.869507 3336.714844,598.721558 
z"/>
<path fill="#031B32" opacity="1.000000" stroke="none" 
	d="
M2469.492676,636.375244 
	C2455.965820,635.655518 2445.005371,629.925171 2433.653564,624.449890 
	C2432.399658,627.060608 2431.828369,630.395447 2429.885254,631.723999 
	C2427.704590,633.214966 2424.293213,633.209106 2421.400391,633.295349 
	C2414.743652,633.493896 2408.069824,633.541626 2401.415771,633.296814 
	C2395.088379,633.063904 2394.043457,631.824341 2393.673340,625.503784 
	C2393.576172,623.843689 2393.655762,622.173157 2393.655762,620.507446 
	C2393.655762,539.886658 2393.652344,459.265900 2393.658936,378.645142 
	C2393.660156,365.325500 2393.680176,365.321533 2406.838867,365.309418 
	C2412.835449,365.303894 2418.832764,365.389252 2424.828125,365.300690 
	C2429.818604,365.226959 2432.188965,367.683533 2432.293213,372.538788 
	C2432.343262,374.869812 2432.342041,377.202240 2432.342285,379.534027 
	C2432.345215,409.850098 2432.344238,440.166199 2432.344238,470.482269 
	C2432.344238,473.664398 2432.344238,476.846497 2432.344238,480.734772 
	C2441.207275,474.430115 2448.592529,468.376160 2456.708984,463.552765 
	C2481.390625,448.884918 2519.445312,451.366577 2541.596436,468.511108 
	C2554.250488,478.305054 2561.642334,491.660553 2565.688965,506.595673 
	C2572.131836,530.374451 2572.752930,554.455994 2565.910400,578.395874 
	C2555.452148,614.987122 2524.208740,636.295288 2488.243652,637.299194 
	C2482.291016,637.465454 2476.316162,636.840332 2469.492676,636.375244 
M2449.291748,596.070618 
	C2453.279541,597.699097 2457.152100,599.742920 2461.273682,600.890015 
	C2492.091309,609.466003 2520.202881,597.038513 2528.166504,562.864624 
	C2531.416748,548.916931 2530.998779,535.057007 2527.281250,521.588379 
	C2522.678223,504.910583 2512.444824,492.923584 2494.594971,488.978790 
	C2460.353516,481.411530 2432.748047,517.201050 2432.363525,540.353882 
	C2432.175781,551.658264 2432.428711,562.969482 2432.293213,574.275391 
	C2432.215332,580.765320 2434.848633,585.786804 2439.818115,589.684326 
	C2442.427490,591.730774 2445.208496,593.558777 2449.291748,596.070618 
z"/>
<path fill="#031C32" opacity="1.000000" stroke="none" 
	d="
M1403.010254,885.452515 
	C1408.525146,899.945312 1414.791138,913.049500 1428.051270,921.228394 
	C1446.194214,932.419128 1478.439209,932.305786 1491.800659,907.520691 
	C1495.587891,900.495178 1497.943726,891.796021 1498.038208,883.829773 
	C1498.599854,836.528870 1498.307373,789.217712 1498.273438,741.910034 
	C1498.272827,740.972717 1497.926514,740.035645 1497.629272,738.529785 
	C1494.710083,738.394287 1491.805054,738.146912 1488.899780,738.142578 
	C1466.911621,738.109680 1444.923462,738.171875 1422.935547,738.101074 
	C1414.174316,738.072815 1412.271362,736.491333 1412.449585,727.583801 
	C1412.619019,719.127197 1410.285645,710.301636 1415.177490,701.692139 
	C1418.006592,701.566162 1420.945801,701.322937 1423.885254,701.321289 
	C1467.861450,701.296936 1511.837769,701.268921 1555.813721,701.356445 
	C1560.491333,701.365784 1566.175903,699.554626 1567.935791,706.779114 
	C1569.927002,714.953125 1567.446167,723.841980 1561.702515,727.048401 
	C1554.756958,730.925842 1547.698853,734.601868 1540.347046,738.548889 
	C1540.347046,742.354004 1540.347046,745.983032 1540.347046,749.612061 
	C1540.347046,793.921448 1540.417480,838.231018 1540.314453,882.540161 
	C1540.269165,901.986328 1535.101440,919.951538 1523.394043,935.697632 
	C1512.598999,950.216248 1497.761475,958.930664 1480.458618,962.824463 
	C1454.774902,968.604065 1429.699951,966.670044 1406.053101,953.987244 
	C1386.366455,943.428528 1373.624268,926.938110 1365.722778,906.436157 
	C1364.588257,903.492737 1364.602661,900.106445 1364.012695,896.478210 
	C1374.790283,892.139160 1384.866943,887.866821 1395.137085,884.125427 
	C1397.246582,883.356873 1400.079224,884.572876 1403.010254,885.452515 
z"/>
<path fill="#041C32" opacity="1.000000" stroke="none" 
	d="
M3037.430176,552.839355 
	C3035.202881,559.227478 3030.479248,558.112061 3026.271240,558.114258 
	C2987.630127,558.134338 2948.988770,558.126038 2910.347656,558.126038 
	C2907.047607,558.126038 2903.747803,558.126099 2900.425537,558.126099 
	C2901.352539,579.147095 2919.620605,601.002808 2946.317383,603.322327 
	C2968.305420,605.232849 2986.837646,598.695923 3001.669434,582.083130 
	C3006.416260,576.766296 3009.177002,576.635254 3014.051270,581.238220 
	C3018.648926,585.580017 3023.139160,590.049622 3027.467041,594.659607 
	C3031.463135,598.915771 3031.609863,601.442749 3027.386475,605.749573 
	C3011.442139,622.008606 2993.397705,633.847046 2969.751465,636.348511 
	C2944.853516,638.982422 2921.385010,636.473389 2899.904785,622.840881 
	C2878.147949,609.032959 2865.780273,588.984497 2861.697266,563.751221 
	C2858.162842,541.907959 2860.314697,520.794006 2870.597900,500.856323 
	C2881.153809,480.389252 2897.434570,466.511353 2919.163086,459.196960 
	C2942.075928,451.483765 2965.154541,451.645538 2987.298828,461.335358 
	C3015.824219,473.817352 3031.306885,496.858337 3036.121338,527.170410 
	C3037.414062,535.309570 3037.170654,543.692688 3037.430176,552.839355 
M2943.892822,488.139191 
	C2936.748291,490.685425 2929.248291,492.530243 2922.537109,495.931335 
	C2910.465332,502.048798 2902.937012,512.070740 2899.880615,525.796997 
	C2932.834229,525.796997 2965.026123,525.796997 2997.277100,525.796997 
	C2993.997803,509.003296 2985.479980,498.388519 2970.904297,492.074341 
	C2962.769043,488.550262 2954.331543,487.724640 2943.892822,488.139191 
z"/>
<path fill="#041C32" opacity="1.000000" stroke="none" 
	d="
M1793.043701,602.774658 
	C1778.868164,618.226624 1763.432861,630.652466 1742.946289,634.765381 
	C1720.718994,639.227722 1698.632446,639.089111 1677.387207,630.097351 
	C1649.027222,618.094543 1631.437134,597.039734 1625.617310,566.600281 
	C1620.838013,541.602417 1623.334473,517.538208 1636.870605,495.564178 
	C1653.093872,469.227722 1677.545166,456.078857 1707.988403,454.208069 
	C1730.550537,452.821625 1751.582886,457.957214 1769.402100,472.668762 
	C1789.233154,489.041382 1798.665283,510.683289 1800.296387,535.984558 
	C1800.638550,541.291321 1800.384521,546.640503 1800.311890,551.968811 
	C1800.257080,555.983704 1798.179810,558.099548 1794.098755,558.113220 
	C1791.767212,558.121033 1789.435669,558.125366 1787.104126,558.125427 
	C1746.144897,558.126160 1705.185791,558.125916 1663.341431,558.125916 
	C1664.363892,572.202942 1671.015503,582.717712 1680.939819,591.461792 
	C1699.523560,607.835388 1738.179565,609.166626 1760.370850,586.783386 
	C1761.543335,585.600830 1762.708496,584.410706 1763.897095,583.244568 
	C1770.770386,576.501465 1772.703613,576.372070 1779.477905,582.674866 
	C1783.132812,586.075439 1786.924805,589.440735 1789.948364,593.366150 
	C1791.787842,595.754333 1792.281494,599.179321 1793.043701,602.774658 
M1758.972900,526.063293 
	C1759.489624,525.137817 1760.604736,524.077087 1760.430786,523.307739 
	C1758.636597,515.369446 1754.899414,508.408905 1749.298096,502.483154 
	C1731.490601,483.644165 1697.110718,483.128601 1677.779053,501.392700 
	C1670.726318,508.056122 1664.844727,515.357056 1663.770508,525.532837 
	C1665.039062,525.799927 1665.688232,526.055542 1666.337646,526.056213 
	C1696.663452,526.086304 1726.989380,526.094360 1758.972900,526.063293 
z"/>
<path fill="#041C33" opacity="1.000000" stroke="none" 
	d="
M3627.312988,619.362305 
	C3594.808350,643.597961 3542.375977,642.580505 3512.220459,621.105225 
	C3493.593262,607.839783 3482.701416,589.710876 3478.708984,567.698303 
	C3475.564453,550.359741 3475.567139,532.689575 3480.917480,515.630615 
	C3490.498779,485.081024 3510.630371,465.284698 3541.989746,457.421539 
	C3564.926514,451.670227 3587.481689,452.872894 3609.242432,462.161163 
	C3634.085449,472.765106 3649.882080,491.669342 3656.430908,517.728455 
	C3663.942627,547.617554 3661.640869,576.439209 3643.474121,602.417969 
	C3639.183105,608.553772 3633.137695,613.462585 3627.312988,619.362305 
M3560.255127,603.288635 
	C3564.245117,603.302551 3568.241455,603.465393 3572.224365,603.304382 
	C3588.160156,602.660400 3601.478271,596.340942 3609.652832,582.552490 
	C3623.375977,559.404846 3623.640869,535.379272 3610.768066,511.691498 
	C3593.911377,480.672760 3545.388184,479.818054 3526.900391,510.361694 
	C3517.124023,526.512878 3515.477783,544.104248 3519.112549,562.185547 
	C3523.504395,584.031067 3536.242676,598.279541 3560.255127,603.288635 
z"/>
<path fill="#041D33" opacity="1.000000" stroke="none" 
	d="
M2273.757324,636.054688 
	C2258.645996,637.861572 2244.536377,638.306396 2230.430176,634.379272 
	C2206.517334,627.721924 2189.867676,607.286926 2189.712158,582.669617 
	C2189.469971,544.337952 2189.609863,506.003632 2189.676270,467.670563 
	C2189.691406,458.942627 2190.568359,458.217651 2199.577393,458.108398 
	C2205.576416,458.035675 2211.577881,458.036621 2217.576904,458.107788 
	C2227.300293,458.223083 2228.219238,459.123810 2228.329346,469.200317 
	C2228.434814,478.865784 2228.352295,488.533325 2228.352295,498.199951 
	C2228.352295,522.199829 2228.316406,546.199829 2228.363281,570.199646 
	C2228.405762,592.090820 2239.649170,603.065796 2261.683105,603.355042 
	C2274.150635,603.518677 2285.179199,600.171997 2294.937500,592.271423 
	C2303.940186,584.982422 2309.574951,576.033813 2309.791504,564.251221 
	C2310.079346,548.597534 2310.216553,532.940186 2310.297363,517.283752 
	C2310.379639,501.284271 2310.276855,485.283875 2310.329102,469.284088 
	C2310.363281,458.785431 2311.059082,458.152954 2321.861572,458.100372 
	C2328.194580,458.069550 2334.538330,458.318207 2340.858154,458.028046 
	C2345.908936,457.796143 2348.262939,460.149323 2348.827881,464.821655 
	C2349.184326,467.772034 2349.645752,470.738678 2349.648926,473.698486 
	C2349.699463,522.031555 2349.685547,570.364685 2349.680664,618.697815 
	C2349.680420,620.696777 2349.820801,622.721497 2349.560547,624.689941 
	C2348.662598,631.479492 2346.860840,633.155151 2339.864014,633.331421 
	C2333.201660,633.499207 2326.530029,633.462830 2319.865479,633.344666 
	C2311.716309,633.200134 2311.078125,632.508301 2310.299805,624.259399 
	C2310.207031,623.273499 2310.026367,622.295837 2309.753662,620.381226 
	C2299.066406,628.599854 2287.511475,633.897644 2273.757324,636.054688 
z"/>
<path fill="#041C33" opacity="1.000000" stroke="none" 
	d="
M1752.349731,884.000122 
	C1752.349731,905.662720 1752.360718,926.325378 1752.336060,946.987976 
	C1752.332886,949.648315 1752.248657,952.317505 1752.019409,954.966736 
	C1751.608032,959.718201 1748.951294,962.122864 1744.149048,962.119507 
	C1736.817139,962.114258 1729.481812,962.265869 1722.154419,962.084229 
	C1715.102051,961.909363 1714.345337,961.048706 1713.653442,954.113281 
	C1713.527588,952.851501 1713.450684,951.584778 1713.334106,950.105774 
	C1712.091553,950.240479 1710.874634,949.998291 1710.239746,950.496948 
	C1699.447266,958.975403 1687.029175,963.521362 1673.564087,964.818481 
	C1657.676270,966.349060 1641.845947,966.881165 1626.552979,960.357971 
	C1604.585449,950.987671 1593.175415,933.859680 1592.583862,910.830566 
	C1591.608521,872.863037 1592.281494,834.852173 1592.346436,796.859741 
	C1592.361938,787.724792 1593.845947,786.275146 1602.601074,786.117920 
	C1608.597900,786.010254 1614.600342,786.001099 1620.596680,786.120056 
	C1629.319702,786.293091 1631.570679,788.551453 1631.648193,797.617615 
	C1631.770874,811.947021 1631.681274,826.278381 1631.681396,840.608887 
	C1631.681519,860.271667 1631.623657,879.934753 1631.697266,899.597229 
	C1631.775146,920.356873 1643.928345,932.366821 1664.823853,932.047913 
	C1680.865723,931.803101 1694.651733,926.253235 1705.210571,913.681641 
	C1712.848145,904.588318 1713.427734,893.514404 1713.546753,882.584839 
	C1713.855225,854.260437 1713.631714,825.930359 1713.659546,797.602600 
	C1713.670288,786.730347 1714.204712,786.202881 1724.806030,786.106995 
	C1730.804321,786.052673 1736.808716,785.943909 1742.801025,786.141235 
	C1749.728760,786.369202 1751.539185,788.143799 1752.208740,795.026001 
	C1752.465820,797.668823 1752.344360,800.351501 1752.345093,803.015991 
	C1752.352661,829.677368 1752.349731,856.338745 1752.349731,884.000122 
z"/>
<path fill="#021A31" opacity="1.000000" stroke="none" 
	d="
M1946.243164,799.849854 
	C1953.368408,808.834961 1956.293335,818.543152 1956.311035,829.125610 
	C1956.379395,870.086426 1956.365234,911.047363 1956.319458,952.008301 
	C1956.308960,961.424438 1955.656128,961.988098 1945.915405,962.103394 
	C1939.588989,962.178345 1933.255981,962.270691 1926.934937,962.071838 
	C1920.056519,961.855530 1918.228882,959.981323 1917.704102,953.106567 
	C1917.526978,950.788635 1917.661743,948.446472 1917.661621,946.115417 
	C1917.660645,911.814819 1917.682983,877.514221 1917.652466,843.213623 
	C1917.634644,823.203308 1904.493042,812.308960 1885.071289,817.239868 
	C1859.451904,823.744141 1844.714111,841.471130 1838.125732,866.344910 
	C1836.625366,872.009216 1836.469116,878.136597 1836.414429,884.057434 
	C1836.220825,905.035645 1836.357666,926.016785 1836.317993,946.996643 
	C1836.312378,949.983643 1836.187256,952.989868 1835.826172,955.951782 
	C1835.359253,959.781616 1832.973145,961.960876 1829.136230,962.022400 
	C1820.813232,962.155823 1812.485107,962.194763 1804.162842,962.050293 
	C1799.827026,961.975037 1797.410278,959.698547 1797.652710,955.078125 
	C1797.757202,953.085693 1797.661377,951.082947 1797.661377,949.084839 
	C1797.660889,899.132507 1797.660889,849.180176 1797.661377,799.227844 
	C1797.661377,797.229797 1797.757324,795.226990 1797.652832,793.234558 
	C1797.409546,788.598267 1799.999390,786.331848 1804.186035,786.202271 
	C1812.170654,785.955139 1820.168823,786.071289 1828.160400,786.141907 
	C1832.887329,786.183655 1835.715698,788.666931 1835.968506,793.403931 
	C1836.213867,798.001038 1836.021606,802.621399 1836.021606,808.590271 
	C1838.723999,807.106689 1840.465820,806.507019 1841.757202,805.387573 
	C1858.701050,790.701660 1878.441406,782.519653 1900.747681,782.328979 
	C1917.582642,782.185181 1933.943970,785.330078 1946.243164,799.849854 
z"/>
<path fill="#031C32" opacity="1.000000" stroke="none" 
	d="
M3126.499023,470.491638 
	C3148.208252,455.665710 3171.269043,451.051849 3196.354736,456.017792 
	C3216.336914,459.973450 3231.993408,476.886353 3232.199951,497.039337 
	C3232.646729,540.657410 3232.328369,584.283447 3232.289307,627.906189 
	C3232.288574,628.868347 3231.882080,629.830078 3231.410400,631.921387 
	C3228.631104,632.366638 3225.534668,633.191406 3222.414551,633.294495 
	C3215.761963,633.514221 3209.090576,633.536499 3202.438477,633.308472 
	C3195.794189,633.080811 3194.424561,631.679199 3194.364990,624.814087 
	C3194.229248,609.164307 3194.321045,593.512512 3194.320801,577.861572 
	C3194.320557,559.213623 3194.323486,540.565735 3194.317871,521.917786 
	C3194.317139,519.254150 3194.351807,516.587524 3194.244629,513.927307 
	C3193.218506,488.486267 3174.626709,485.599243 3159.327637,489.196869 
	C3137.616699,494.302368 3117.068848,517.255432 3113.837646,539.743408 
	C3112.804932,546.930420 3112.477295,554.264099 3112.411133,561.535950 
	C3112.226318,581.847168 3112.420654,602.161621 3112.315186,622.473999 
	C3112.264160,632.338013 3111.212158,633.266479 3101.447998,633.351746 
	C3095.121582,633.406982 3088.790527,633.491943 3082.468018,633.326782 
	C3074.911865,633.129395 3073.805420,632.052185 3073.688721,624.569275 
	C3073.543457,615.247559 3073.653076,605.921875 3073.653076,596.597900 
	C3073.652832,554.973022 3073.652344,513.348206 3073.654785,471.723328 
	C3073.654785,469.059631 3073.535645,466.385406 3073.729492,463.734894 
	C3073.983887,460.255829 3075.976807,458.200958 3079.516602,458.164001 
	C3088.173340,458.073578 3096.832275,458.054657 3105.488770,458.146973 
	C3109.939209,458.194427 3112.138916,460.811707 3112.247559,465.116119 
	C3112.363770,469.703857 3112.273682,474.296875 3112.273682,480.548737 
	C3117.552979,476.805115 3121.723877,473.847565 3126.499023,470.491638 
z"/>
<path fill="#041C33" opacity="1.000000" stroke="none" 
	d="
M2348.290527,828.842041 
	C2347.587891,837.251404 2351.480713,842.622681 2357.874023,845.550720 
	C2365.366211,848.981873 2373.253662,851.711792 2381.189941,853.973022 
	C2393.990234,857.619873 2406.517090,861.641174 2418.410156,867.874817 
	C2449.798340,884.326599 2450.357178,936.131287 2417.652344,955.147949 
	C2384.172607,974.615356 2330.357910,967.635498 2304.497559,932.353577 
	C2302.931396,930.216614 2301.418701,927.989929 2300.248047,925.623535 
	C2297.678711,920.429871 2298.593506,915.884644 2303.360107,912.722351 
	C2308.885010,909.056763 2314.647705,905.686340 2320.561035,902.688416 
	C2325.763428,900.050964 2329.224121,901.404724 2333.592529,906.192932 
	C2338.267822,911.317810 2342.847656,916.611084 2348.073975,921.131958 
	C2355.257324,927.345764 2364.031738,930.618958 2373.426514,931.613342 
	C2377.638916,932.059143 2382.075684,931.706299 2386.251709,930.895447 
	C2394.596191,929.275208 2399.944824,923.850342 2401.315430,915.584167 
	C2402.687256,907.310120 2399.494385,900.000610 2391.892090,896.407166 
	C2382.662842,892.044556 2372.844971,888.881531 2363.172363,885.514038 
	C2351.904785,881.591125 2340.282471,878.724854 2330.198486,871.805847 
	C2315.627686,861.808289 2308.394287,848.050049 2308.902344,830.576050 
	C2309.472168,810.980164 2319.998535,797.532776 2337.214600,789.453491 
	C2365.464355,776.196228 2405.923584,781.641235 2430.477783,803.694519 
	C2435.470703,808.179016 2435.872559,812.880493 2431.700439,818.488403 
	C2429.126465,821.948120 2426.454590,825.352600 2423.603271,828.584717 
	C2417.274414,835.759033 2413.510986,836.288757 2405.853271,830.384338 
	C2396.723389,823.344421 2386.721924,818.537964 2375.348633,816.545288 
	C2363.287109,814.432129 2354.202881,818.269653 2348.290527,828.842041 
z"/>
<path fill="#041D33" opacity="1.000000" stroke="none" 
	d="
M1828.764893,601.145630 
	C1823.104492,590.643005 1823.867188,587.550659 1833.071167,582.121033 
	C1837.074341,579.759460 1841.103149,577.412048 1845.270386,575.363464 
	C1852.167603,571.972961 1854.933105,572.626404 1860.119263,578.318237 
	C1863.473999,582.000244 1866.653931,585.864380 1870.230957,589.316772 
	C1880.557983,599.284546 1892.928223,604.066650 1907.347046,603.294250 
	C1917.381226,602.756714 1925.401489,596.699951 1927.313965,588.202698 
	C1929.251221,579.595764 1924.936646,570.562012 1915.361450,566.440857 
	C1905.642090,562.257751 1895.371216,559.337952 1885.294922,556.006653 
	C1871.380371,551.406433 1857.941772,546.453003 1847.090210,535.604492 
	C1831.259033,519.777771 1830.313477,483.820282 1851.867310,468.064270 
	C1866.641479,457.264496 1882.952026,453.557770 1900.628052,454.146240 
	C1919.322754,454.768585 1936.682861,459.676331 1951.564697,471.583740 
	C1953.887329,473.442139 1956.375122,475.257080 1958.154053,477.577057 
	C1959.428833,479.239563 1960.180176,481.698883 1960.229980,483.824493 
	C1960.338623,488.476532 1947.348877,504.615448 1942.898682,505.852844 
	C1938.452637,507.089050 1935.267090,504.592041 1932.048828,502.154175 
	C1923.755005,495.871094 1914.868042,490.809021 1904.456177,488.948761 
	C1897.519409,487.709381 1890.550659,487.055817 1883.916870,490.087585 
	C1878.900146,492.380402 1874.832520,495.822571 1874.271362,501.801453 
	C1873.683350,508.066040 1876.366333,513.362427 1881.820068,515.827759 
	C1890.828369,519.900085 1900.357056,522.809875 1909.616333,526.341003 
	C1921.672119,530.938721 1934.145142,534.747437 1945.590820,540.563782 
	C1960.459106,548.119507 1966.651855,561.624634 1967.783936,578.127197 
	C1970.326904,615.195923 1943.241333,631.195679 1920.031128,635.714355 
	C1898.243652,639.955872 1877.194580,637.029480 1857.215332,626.632263 
	C1845.666382,620.622192 1836.700806,612.093506 1828.764893,601.145630 
z"/>
<path fill="#041C33" opacity="1.000000" stroke="none" 
	d="
M2271.917969,793.065063 
	C2263.263672,806.578369 2254.820801,819.326843 2246.334473,832.046326 
	C2238.043213,844.473633 2229.707520,856.871277 2220.968506,869.913025 
	C2240.168213,899.752869 2261.556885,928.412170 2281.457031,960.283264 
	C2276.854736,961.130188 2274.151855,962.003967 2271.432373,962.059082 
	C2262.441895,962.241211 2253.436035,961.874023 2244.455078,962.216492 
	C2238.380127,962.448059 2234.737793,959.898621 2231.506348,954.898865 
	C2220.875732,938.451172 2209.814209,922.281921 2198.390625,905.218018 
	C2196.460693,907.616333 2194.755371,909.445068 2193.378174,911.494141 
	C2183.918701,925.567749 2174.362793,939.581360 2165.194580,953.843445 
	C2161.423828,959.708862 2157.102051,962.816956 2149.715576,962.281555 
	C2140.768555,961.632996 2131.734619,962.289917 2122.746094,962.068665 
	C2116.406982,961.912659 2115.120117,959.541138 2118.143555,953.956116 
	C2119.718262,951.046936 2121.752197,948.382446 2123.623047,945.637634 
	C2140.278809,921.201843 2156.947510,896.774902 2173.588867,872.329285 
	C2173.944824,871.806274 2174.021973,871.093567 2174.559082,869.475647 
	C2165.740967,856.228516 2156.592285,842.422913 2147.377197,828.661987 
	C2140.533447,818.442688 2133.591064,808.289612 2126.726074,798.084473 
	C2125.800781,796.709045 2124.837891,795.284119 2124.294678,793.740479 
	C2122.779297,789.434143 2124.515137,786.389160 2129.225830,786.241211 
	C2139.208740,785.927795 2149.211182,786.013306 2159.199951,786.208557 
	C2164.029053,786.302917 2166.711914,789.755615 2169.193359,793.508545 
	C2178.361084,807.372864 2187.673584,821.141296 2197.477051,835.759216 
	C2199.403320,833.438904 2201.143311,831.658752 2202.520508,829.632141 
	C2210.739502,817.537109 2219.012451,805.474426 2226.970703,793.208557 
	C2230.191650,788.244446 2234.173584,785.843567 2240.139404,786.030396 
	C2248.459229,786.290894 2256.794434,786.179993 2265.120605,786.066223 
	C2269.499268,786.006409 2272.221191,787.468262 2271.917969,793.065063 
z"/>
<path fill="#041D33" opacity="1.000000" stroke="none" 
	d="
M2104.311279,601.771729 
	C2118.038574,598.320374 2126.266602,588.232788 2136.515625,579.494263 
	C2139.299805,581.312683 2142.215820,582.747864 2144.542236,584.839172 
	C2148.749756,588.621460 2152.680908,592.723328 2156.589600,596.823059 
	C2162.074219,602.575745 2161.984131,604.058899 2156.241943,610.008545 
	C2140.270996,626.556580 2120.444336,635.255798 2097.864502,637.175110 
	C2075.899902,639.042114 2054.656982,635.431396 2035.435791,624.047607 
	C2015.604248,612.302368 2003.150269,594.874756 1997.594238,572.442444 
	C1992.687134,552.630005 1992.860107,532.894165 1999.356201,513.605835 
	C2010.249268,481.261963 2034.178833,463.238129 2066.566650,456.349915 
	C2090.939941,451.166229 2114.945312,453.343323 2137.070312,466.073120 
	C2142.796875,469.367798 2148.296143,473.274475 2153.250977,477.636902 
	C2159.161133,482.840454 2159.070068,485.960388 2154.132324,492.078461 
	C2150.164795,496.993958 2146.228271,501.960327 2141.911133,506.559845 
	C2137.738037,511.005981 2135.891113,510.945496 2130.918945,507.135620 
	C2126.435791,503.700653 2122.238037,499.868073 2117.604980,496.657593 
	C2090.483154,477.862854 2043.844727,488.714417 2036.075928,533.473999 
	C2033.171143,550.210205 2035.048828,566.456177 2044.480347,581.150635 
	C2052.941162,594.332397 2065.356689,601.570496 2080.661865,603.060242 
	C2088.160156,603.790039 2095.864502,602.402283 2104.311279,601.771729 
z"/>
<path fill="#021A31" opacity="1.000000" stroke="none" 
	d="
M2085.611816,786.104187 
	C2088.556152,786.104980 2090.560303,786.013855 2092.553467,786.123291 
	C2099.652100,786.512878 2101.356689,788.092407 2101.630371,795.026978 
	C2101.827393,800.017212 2101.763672,805.023499 2101.650146,810.018860 
	C2101.473145,817.806519 2099.424805,819.944519 2091.475098,820.076294 
	C2081.148926,820.247498 2070.817383,820.107239 2060.488281,820.133545 
	C2058.860107,820.137695 2057.232422,820.313293 2054.985596,820.446350 
	C2054.759277,823.196716 2054.372314,825.743042 2054.367920,828.290100 
	C2054.322998,854.279541 2054.103516,880.272888 2054.524414,906.255554 
	C2054.617676,911.995667 2055.809814,918.424866 2058.663574,923.256409 
	C2063.591553,931.599792 2072.371826,933.013855 2081.520264,931.753174 
	C2085.346924,931.225830 2089.152100,930.544067 2093.534668,929.841492 
	C2093.877441,932.685303 2094.290771,934.595215 2094.306885,936.508423 
	C2094.379150,945.099609 2094.338379,953.691711 2094.338379,963.049194 
	C2075.802490,966.296265 2058.135498,968.097961 2040.808838,961.700623 
	C2025.294556,955.972534 2015.799805,941.186462 2015.704224,923.380432 
	C2015.543213,893.393372 2015.659668,863.404907 2015.659424,833.416992 
	C2015.659424,829.456726 2015.659424,825.496399 2015.659424,820.118958 
	C2007.336670,820.118958 1999.492188,820.164368 1991.648438,820.107605 
	C1981.515625,820.034241 1980.020020,818.629211 1979.685669,808.774719 
	C1979.550171,804.781067 1979.512817,800.771484 1979.701416,796.781921 
	C1980.116333,788.009583 1981.853760,786.267517 1990.443848,786.131592 
	C1998.416138,786.005493 2006.392090,786.104736 2015.659424,786.104736 
	C2015.659424,780.798157 2015.659180,775.929810 2015.659546,771.061462 
	C2015.660278,758.733093 2015.546509,746.403259 2015.710327,734.077026 
	C2015.792969,727.858521 2017.139404,726.439514 2023.346680,726.179321 
	C2030.331665,725.886536 2037.339600,726.017700 2044.334961,726.127747 
	C2052.605713,726.257812 2054.176758,727.706726 2054.291260,736.187744 
	C2054.471191,749.513245 2054.340088,762.843018 2054.340576,776.170959 
	C2054.340576,779.103699 2054.340332,782.036438 2054.340332,786.104187 
	C2064.902100,786.104187 2074.784424,786.104187 2085.611816,786.104187 
z"/>
<path fill="#061E34" opacity="1.000000" stroke="none" 
	d="
M2645.717041,474.556824 
	C2646.169678,477.940521 2647.230713,477.603882 2648.893311,476.212921 
	C2653.974121,471.961517 2658.845947,467.365692 2664.341553,463.722107 
	C2683.582031,450.965546 2720.852783,449.708649 2739.525635,466.152435 
	C2752.250732,477.358643 2756.873535,491.623138 2756.290771,508.028076 
	C2756.148438,512.033630 2753.674072,514.049377 2749.779297,514.088928 
	C2741.448486,514.173706 2733.114990,514.031128 2724.785400,514.160400 
	C2720.966064,514.219543 2718.943359,511.764709 2718.594482,508.830841 
	C2717.468506,499.362122 2713.375488,492.389496 2703.930176,489.506653 
	C2693.056152,486.187683 2682.937500,488.064850 2673.753418,494.718628 
	C2657.129883,506.761993 2647.607910,523.204285 2646.552979,543.525085 
	C2645.431396,565.127075 2645.898926,586.812073 2645.698486,608.461060 
	C2645.645996,614.126038 2645.852783,619.798096 2645.642822,625.455811 
	C2645.422607,631.382324 2643.787842,633.122864 2637.805664,633.309814 
	C2629.815186,633.559570 2621.810303,633.302185 2613.812988,633.389893 
	C2609.295410,633.439453 2607.035400,631.043945 2606.472656,626.890564 
	C2606.162109,624.596191 2606.314209,622.234558 2606.313965,619.903259 
	C2606.307373,570.913513 2606.308838,521.923706 2606.309570,472.933960 
	C2606.309814,470.934418 2606.175293,468.921997 2606.351562,466.937622 
	C2606.972900,459.948669 2608.630371,458.300690 2615.636475,458.124176 
	C2621.964600,457.964722 2628.299805,458.054474 2634.631592,458.097168 
	C2644.703125,458.165070 2645.504639,458.956573 2645.686523,468.759430 
	C2645.717529,470.425262 2645.694092,472.092133 2645.717041,474.556824 
z"/>
<path fill="#021A31" opacity="1.000000" stroke="none" 
	d="
M2787.661133,470.459442 
	C2788.383789,458.253235 2788.423584,458.188812 2799.089600,458.114624 
	C2805.742676,458.068329 2812.397705,458.200684 2819.048828,458.081879 
	C2824.075684,457.992126 2826.427734,460.325623 2826.336914,465.292206 
	C2826.300537,467.287445 2826.338379,469.283997 2826.338379,471.279938 
	C2826.339111,520.846436 2826.339111,570.412964 2826.337891,619.979431 
	C2826.337891,622.307983 2826.338135,624.636719 2826.315674,626.965149 
	C2826.276123,631.044922 2823.980957,633.182373 2820.127441,633.257263 
	C2811.481934,633.425354 2802.830811,633.332275 2794.182129,633.325745 
	C2790.042725,633.322571 2788.199951,630.827087 2787.877686,627.077148 
	C2787.621826,624.103943 2787.669678,621.100403 2787.668945,618.110291 
	C2787.657959,569.209106 2787.660889,520.307922 2787.661133,470.459442 
z"/>
<path fill="#051C33" opacity="1.000000" stroke="none" 
	d="
M2828.492188,420.222107 
	C2816.544678,432.502014 2800.962891,433.944092 2789.791016,424.419983 
	C2782.467041,418.176147 2779.428223,406.092896 2782.677246,396.133850 
	C2785.882568,386.309814 2794.634277,379.906433 2805.106934,379.255341 
	C2815.231934,378.625824 2823.775146,381.696228 2828.960693,390.531311 
	C2834.485596,399.944153 2834.644043,409.906616 2828.492188,420.222107 
z"/>
<path fill="#FDFEFF" opacity="1.000000" stroke="none" 
	d="
M839.242310,353.249298 
	C810.341797,382.792145 793.567444,417.587036 787.887085,457.680328 
	C786.494690,467.507812 785.861755,477.523682 785.851746,487.453949 
	C785.720703,617.085449 785.757446,746.717163 785.794189,876.348816 
	C785.795471,880.999268 785.653564,885.767029 786.571594,890.278015 
	C789.406189,904.206055 798.053772,913.164673 811.431946,917.713745 
	C837.573914,926.602844 863.707397,935.516907 889.843811,944.422302 
	C950.309875,965.024475 1010.780762,985.612427 1071.232544,1006.256592 
	C1076.571167,1008.079773 1081.784302,1010.270996 1088.250977,1012.749390 
	C1088.250977,1018.766479 1088.250977,1024.989868 1088.250977,1031.213257 
	C1088.250854,1039.544312 1088.307373,1047.875854 1088.238647,1056.206299 
	C1088.098267,1073.201294 1079.157227,1079.597900 1062.744507,1074.196289 
	C1044.424683,1068.166992 1026.182983,1061.899292 1007.926392,1055.678955 
	C966.996216,1041.733032 926.072815,1027.766846 885.155945,1013.781860 
	C834.490845,996.465149 783.832764,979.127991 733.183472,961.765137 
	C731.023499,961.024658 728.982422,959.937439 726.235291,958.724426 
	C726.235291,954.728638 726.235291,950.772217 726.235291,946.815796 
	C726.235291,773.196045 726.260437,599.576294 726.216675,425.956512 
	C726.206360,384.980530 738.322937,347.832092 762.703674,315.167542 
	C789.468323,279.309052 824.468933,255.113373 868.573181,244.931183 
	C937.388123,229.044113 1009.947021,256.711121 1051.656982,312.688293 
	C1052.045898,313.210205 1052.228638,313.885651 1052.643066,314.782410 
	C973.669434,283.238617 901.987122,291.745422 839.242310,353.249298 
z"/>
<path fill="#FEFEFF" opacity="1.000000" stroke="none" 
	d="
M962.879150,845.289001 
	C1003.946045,859.218567 1044.289673,872.842651 1085.135376,886.636292 
	C1085.135376,903.321899 1085.135376,919.820923 1085.135376,937.523682 
	C1074.305542,934.030579 1063.932739,930.832520 1053.658936,927.342529 
	C1026.889282,918.248779 1000.158447,909.040344 973.420593,899.853088 
	C938.819214,887.963806 904.203918,876.114197 869.642700,864.109253 
	C859.221313,860.489502 855.777771,855.607300 855.774719,844.901917 
	C855.739868,720.584106 855.560242,596.265686 855.929749,471.948944 
	C855.997070,449.286102 865.179565,429.170197 879.110291,411.484161 
	C904.131714,379.717682 937.108887,364.039337 977.456238,366.359772 
	C1009.094910,368.179382 1035.547363,382.043915 1056.242676,406.254059 
	C1060.943481,411.753265 1065.061401,417.750671 1070.035400,424.291687 
	C1057.251221,423.327911 1045.954224,421.936707 1034.635620,421.730499 
	C1007.543640,421.236938 983.701233,430.598297 962.982361,447.664673 
	C932.888916,472.452942 917.955505,504.787598 917.840027,543.603943 
	C917.588318,628.259338 918.009583,712.917114 917.596436,797.571228 
	C917.486694,820.061707 928.651062,834.556335 948.057983,839.948303 
	C952.853394,841.280640 957.461609,843.286987 962.879150,845.289001 
z"/>
<path fill="#FFFFFF" opacity="1.000000" stroke="none" 
	d="
M1082.243408,746.000000 
	C1082.243530,767.275330 1082.243530,787.550659 1082.243530,809.113342 
	C1076.002441,807.158813 1070.708862,805.629700 1065.501831,803.847229 
	C1046.317749,797.280396 1027.171753,790.602112 1007.992798,784.019958 
	C994.403625,779.356201 989.795776,773.311340 989.784363,759.008057 
	C989.727051,687.045532 989.953857,615.082153 989.647034,543.120972 
	C989.546509,519.555237 1004.836914,501.217590 1022.509521,495.724854 
	C1051.924927,486.582428 1082.147705,508.251068 1082.203369,539.107178 
	C1082.327148,607.737915 1082.242676,676.369019 1082.243408,746.000000 
z"/>
<path fill="#FDFDFD" opacity="1.000000" stroke="none" 
	d="
M1428.339844,446.002625 
	C1428.339844,433.741608 1428.339844,422.479767 1428.339844,410.371674 
	C1450.944824,410.131561 1472.827759,408.315674 1494.156616,414.900330 
	C1521.817749,423.439789 1539.130127,442.100372 1546.519897,469.928955 
	C1552.174561,491.223175 1552.499634,512.916626 1547.128540,534.093750 
	C1538.488770,568.158203 1515.817627,588.454407 1481.226807,593.780212 
	C1464.273193,596.390442 1446.857788,596.001282 1428.339844,597.043457 
	C1428.339844,546.052124 1428.339844,496.526947 1428.339844,446.002625 
z"/>
<path fill="#FCFDFD" opacity="1.000000" stroke="none" 
	d="
M3336.033691,598.400452 
	C3319.310547,588.869507 3311.981689,574.417419 3309.594727,556.576416 
	C3307.160645,538.383667 3309.899902,521.349609 3320.862305,506.531342 
	C3341.211426,479.024200 3382.336182,482.326172 3399.605225,513.887390 
	C3401.713135,517.739929 3402.063477,522.858337 3402.206299,527.422119 
	C3402.560303,538.738770 3401.424316,550.162415 3402.528076,561.381531 
	C3404.296631,579.357666 3387.771973,601.690247 3362.830566,603.262390 
	C3353.829346,603.829834 3344.833008,603.598083 3336.033691,598.400452 
z"/>
<path fill="#FCFCFD" opacity="1.000000" stroke="none" 
	d="
M2448.601807,595.778015 
	C2445.208496,593.558777 2442.427490,591.730774 2439.818115,589.684326 
	C2434.848633,585.786804 2432.215332,580.765320 2432.293213,574.275391 
	C2432.428711,562.969482 2432.175781,551.658264 2432.363525,540.353882 
	C2432.748047,517.201050 2460.353516,481.411530 2494.594971,488.978790 
	C2512.444824,492.923584 2522.678223,504.910583 2527.281250,521.588379 
	C2530.998779,535.057007 2531.416748,548.916931 2528.166504,562.864624 
	C2520.202881,597.038513 2492.091309,609.466003 2461.273682,600.890015 
	C2457.152100,599.742920 2453.279541,597.699097 2448.601807,595.778015 
z"/>
<path fill="#FAFEFE" opacity="1.000000" stroke="none" 
	d="
M2944.768555,488.127808 
	C2954.331543,487.724640 2962.769043,488.550262 2970.904297,492.074341 
	C2985.479980,498.388519 2993.997803,509.003296 2997.277100,525.796997 
	C2965.026123,525.796997 2932.834229,525.796997 2899.880615,525.796997 
	C2902.937012,512.070740 2910.465332,502.048798 2922.537109,495.931335 
	C2929.248291,492.530243 2936.748291,490.685425 2944.768555,488.127808 
z"/>
<path fill="#FAFDFD" opacity="1.000000" stroke="none" 
	d="
M1758.144043,526.084106 
	C1726.989380,526.094360 1696.663452,526.086304 1666.337646,526.056213 
	C1665.688232,526.055542 1665.039062,525.799927 1663.770508,525.532837 
	C1664.844727,515.357056 1670.726318,508.056122 1677.779053,501.392700 
	C1697.110718,483.128601 1731.490601,483.644165 1749.298096,502.483154 
	C1754.899414,508.408905 1758.636597,515.369446 1760.430786,523.307739 
	C1760.604736,524.077087 1759.489624,525.137817 1758.144043,526.084106 
z"/>
<path fill="#FCFDFD" opacity="1.000000" stroke="none" 
	d="
M3559.422852,603.139404 
	C3536.242676,598.279541 3523.504395,584.031067 3519.112549,562.185547 
	C3515.477783,544.104248 3517.124023,526.512878 3526.900391,510.361694 
	C3545.388184,479.818054 3593.911377,480.672760 3610.768066,511.691498 
	C3623.640869,535.379272 3623.375977,559.404846 3609.652832,582.552490 
	C3601.478271,596.340942 3588.160156,602.660400 3572.224365,603.304382 
	C3568.241455,603.465393 3564.245117,603.302551 3559.422852,603.139404 
z"/>
</svg>