<svg id="Capa_2" data-name="Capa 2" xmlns="http://www.w3.org/2000/svg" viewBox="0 0 152.96 174.9" width="21" height="20">
  <defs>
    <style>
      .cls-1 {
        fill: #7286ff;
        stroke-width: 0px;
      }
    </style>
  </defs>
  <g id="Capa_1-2" data-name="Capa 1">
    <path class="cls-1" d="m152.96,43.93v28.29s-25.3.48-43.69-15.04v62.11-.02c.01.47.02.95.02,1.43,0,29.93-24.46,54.19-54.64,54.19S0,150.64,0,120.71s24.46-54.18,54.65-54.18c2.81,0,5.57.21,8.27.62v29.05c-2.6-.86-5.38-1.33-8.27-1.33-14.4,0-26.06,11.57-26.06,25.84s11.67,25.84,26.06,25.84,26.06-11.57,26.06-25.84v-47.64s-.02-.01-.03-.02V0h28.2s-.1,40.66,44.09,43.93Z"/>
  </g>
</svg>
